OpenSim_Sub07_CSBaseline_GRF.mot
version=1
nRows=59
nColumns=19
inDegrees=no
endheader
time	lFx	lFy	lFz	lCOPx	lCOPy	lCOPz	rFx	rFy	rFz	rCOPx	rCOPy	rCOPz	lMx	lMy	lMz	rMx	rMy	rMz
38.94000000	5.08205183	0.77503482	-3.17942531	-0.00001997	0	0.00002844	-33.02856944	671.73554169	-33.25324806	0.76861150	0	-0.45512220	0	0.00024216	0	0	-2.41957559	0
38.95000000	5.01154668	0.79030722	-3.28751242	-0.00002591	0	0.00003315	-31.35667920	665.95732395	-31.94282558	0.76443980	0	-0.45471887	0	0.00029216	0	0	-2.16971167	0
38.96000000	4.96268375	0.69314111	-3.39661675	-0.00001563	0	0.00001924	-29.71794989	663.57491947	-30.76023051	0.76034029	0	-0.45421625	0	0.00017182	0	0	-1.95000552	0.00000000
38.97000000	4.91460615	0.58509629	-3.50600578	-0.00000578	0	0.00000678	-28.10991978	664.03348592	-29.75731661	0.75613389	0	-0.45364226	0	0.00006155	0	0	-1.75907795	-0.00000000
38.98000000	4.82408322	0.56002495	-3.61448060	-0.00000054	0	0.00000039	-26.61658422	666.58637532	-28.95899383	0.75173919	0	-0.45296177	0	0.00000434	0	0	-1.53468366	-0.00000000
38.99000000	4.71026614	0.61106891	-3.67371178	0.00000109	0	-0.00000147	-25.27702554	670.45218165	-28.33007460	0.74731585	0	-0.45212612	0	-0.00001273	0	0	-1.32636768	0
39	4.61962830	0.72715693	-3.72438989	0.00000102	0	-0.00000129	-24.09702111	675.13109756	-27.85280081	0.74310792	0	-0.45116043	0	-0.00001142	0	0	-1.14125015	0
39.01000000	4.55512141	0.81333779	-3.73478758	0.00000054	0	-0.00000065	-23.07886784	680.27672350	-27.56938024	0.73907922	0	-0.45011367	0	-0.00000585	0	0	-0.91708220	0
39.02000000	4.51851210	0.84128007	-3.73758746	0.00000017	0	-0.00000019	-22.08776064	685.70074304	-27.57039947	0.73500924	0	-0.44899758	0	-0.00000171	0	0	-0.70405816	0
39.03000000	4.49391223	0.81566841	-3.74126380	-0.00000001	0	0.00000002	-20.80661225	691.45713352	-27.96570185	0.73060868	0	-0.44782202	0	0.00000016	0	0	-0.58372674	0
39.04000000	4.48579248	0.79307452	-3.76842145	-0.00000005	0	0.00000006	-19.07142645	697.69354987	-28.80128469	0.72574061	0	-0.44660282	0	0.00000060	0	0	-0.51539484	0
39.05000000	4.49501936	0.84173666	-3.80370243	-0.00000004	0	0.00000005	-16.93898587	704.34426128	-30.01409353	0.72060602	0	-0.44535183	0	0.00000048	0	0	-0.45112874	0.00000000
39.06000000	4.48624642	0.91579538	-3.80509813	-0.00000004	0	0.00000003	-14.49335320	710.89196451	-31.42453804	0.71542465	0	-0.44408907	0	0.00000028	0	0	-0.42008283	0
39.07000000	4.44547630	0.95808358	-3.84022082	-0.00000006	0	0.00000004	-11.64239007	716.59843666	-32.91873188	0.71009986	0	-0.44288885	0	0.00000014	0	0	-0.38300506	-0.00000000
39.08000000	4.37515632	0.99310991	-3.89418299	-0.00000009	0	0.00000006	-8.42284446	721.20425605	-34.51534264	0.70475228	0	-0.44180404	0	-0.00000008	0	0	-0.30609862	0
39.09000000	4.29452164	1.04084342	-3.92381653	-0.00000008	0	0.00000006	-5.10371790	724.84852772	-36.18165900	0.69944748	0	-0.44088600	0	-0.00000058	0	0	-0.23442108	0
39.10000000	4.22567011	1.05841338	-3.94580449	0.00000010	0	-0.00000007	-1.76692695	727.93881614	-37.77178664	0.69412946	0	-0.44015239	0	-0.00000147	0	0	-0.19246016	0.00000000
39.11000000	4.17358834	1.01326963	-3.92679941	0.00000062	0	-0.00000042	1.66484518	731.05545251	-39.11752854	0.68867919	0	-0.43958487	0	-0.00000235	0	0	-0.11075227	0.00000000
39.12000000	4.12926239	0.87627104	-3.93226939	0.00000152	0	-0.00000105	5.16344938	734.71856531	-40.02694353	0.68313804	0	-0.43914966	0	-0.00000163	0	0	-0.02056643	-0.00000000
39.13000000	4.07532693	0.73731761	-3.91721548	0.00000231	0	-0.00000161	8.49308617	738.85851518	-40.44678608	0.67755563	0	-0.43887404	0	0.00000389	0	0	0.02720504	0
39.14000000	4.01046376	0.63935937	-3.91200565	0.00000131	0	-0.00000094	11.50544747	743.09899880	-40.45644988	0.67202483	0	-0.43874954	0	0.00001809	0	0	0.08221333	0
39.15000000	3.95791650	0.55553349	-3.89501004	-0.00000477	0	0.00000322	14.13431449	746.96545250	-40.23012183	0.66659090	0	-0.43872250	0	0.00004058	0	0	0.15127842	0.00000000
39.16000000	3.96151573	0.49990717	-3.85420425	-0.00001956	0	0.00001341	16.52062505	750.04687926	-39.95554571	0.66129058	0	-0.43868806	0	0.00005554	0	0	0.15273722	0
39.17000000	4.00325318	0.50685546	-3.79463854	-0.00004172	0	0.00002883	18.67619542	752.04736331	-39.85135204	0.65612805	0	-0.43857331	0	0.00001601	0	0	0.12860340	0
39.18000000	4.02906896	0.58055498	-3.70631601	-0.00005347	0	0.00003731	20.57952719	752.79358882	-40.04211210	0.65110734	0	-0.43836176	0	-0.00016164	0	0	0.14388693	0
39.19000000	4.02855914	0.66114653	-3.62526348	-0.00000535	0	0.00000482	22.30240752	752.42766926	-40.54384998	0.64626037	0	-0.43804912	0	-0.00055515	0	0	0.13424877	0
39.20000000	4.00277167	0.67216070	-3.54385539	0.00018639	0	-0.00012674	24.21957576	751.26890136	-41.26642170	0.64130445	0	-0.43764768	0	-0.00108519	0	0	0.06229704	0.00000000
39.21000000	3.97935036	0.63117759	-3.49010827	0.00059042	0	-0.00040593	26.53470729	750.01197358	-42.06212125	0.63615952	0	-0.43721336	0	-0.00121439	0	0	-0.00410887	-0.00000000
39.22000000	4.00713679	0.62570719	-3.43707352	0.00109925	0	-0.00076113	29.20148754	749.41566043	-42.68891745	0.63071817	0	-0.43685611	0	0.00040026	0	0	-0.06591022	0
39.23000000	4.10314905	0.58816371	-3.36849400	0.00112363	0	-0.00078895	32.03950454	749.93361568	-42.84003465	0.62508812	0	-0.43662172	0	0.00582917	0	0	-0.13922900	0
39.24000000	4.19906718	0.31856629	-3.34780331	-0.00073117	0	0.00047284	34.80868450	750.92869063	-42.42300628	0.61917618	0	-0.43652453	0	0.01631289	0	0	-0.15018850	0
39.25000000	4.18535336	-0.31626514	-3.38648658	-0.00649724	0	0.00443796	37.27503730	751.22503718	-41.52438375	0.61320278	0	-0.43649940	0	0.02779536	0	0	-0.07256861	-0.00000000
39.26000000	3.82576055	-1.06405899	-3.37092834	-0.01710166	0	0.01178215	39.36580224	750.04088045	-40.36634056	0.60742280	0	-0.43645775	0	0.02316566	0	0	0.01247108	0
39.27000000	2.70285723	-1.16237498	-3.21383980	-0.02767485	0	0.01921176	41.26275945	747.09206563	-39.22954496	0.60196182	0	-0.43638187	0	-0.03453612	0	0	0.09899685	0
39.28000000	0.51251908	1.43344084	-2.87117680	-0.01980612	0	0.01408962	43.18401745	742.36629480	-38.19852509	0.59669528	0	-0.43626571	0	-0.19348267	0	0	0.22201930	-0.00000000
39.29000000	-1.94691844	9.68821159	-2.55005515	0.04435554	0	-0.02975051	45.44754010	735.74560685	-37.20065974	0.59146739	0	-0.43610834	0	-0.46088010	0	0	0.31767037	0
39.30000000	-1.58668223	26.04082413	-2.79538604	0.21077997	0	-0.14442889	48.24065485	726.80441590	-36.27300495	0.58603164	0	-0.43595080	0	-0.67610568	0	0	0.36055054	-0.00000000
39.31000000	4.67288516	52.52573016	-4.62004530	0.47659476	0	-0.32900352	51.61760777	715.08553243	-35.45330693	0.58039169	0	-0.43584643	0	-0.32088863	0	0	0.41653268	-0.00000000
39.32000000	14.44250333	88.50884238	-8.91500301	0.71211493	0	-0.49492650	55.22456106	700.25039703	-34.47156599	0.57473522	0	-0.43579737	0	1.29252728	0	0	0.48198316	0
39.33000000	20.73727466	129.33061874	-12.80252520	0.83238357	0	-0.58192253	58.66979777	681.95014122	-33.09758826	0.56930910	0	-0.43575779	0	3.65580648	0	0	0.50753810	0
39.34000000	20.46998763	171.06847264	-14.20740670	0.86856177	0	-0.60837806	61.57228146	659.97705104	-31.35466932	0.56418258	0	-0.43571166	0	5.73535742	0	0	0.54137908	0
39.35000000	14.90275426	214.84251544	-12.86961134	0.86962187	0	-0.60745626	63.67744362	634.48641306	-29.20951570	0.55913940	0	-0.43567691	0	7.13262069	0	0	0.65939513	0
39.36000000	5.71491510	264.67380155	-8.47791131	0.86371440	0	-0.60046664	65.09004671	605.94491452	-26.60038867	0.55425561	0	-0.43564122	0	7.67079981	0	0	0.83545907	-0.00000000
39.37000000	-4.47288013	318.88709393	-2.22717385	0.86025761	0	-0.59558473	66.16534371	574.03043259	-23.49193313	0.54933998	0	-0.43566136	0	7.66035252	0	0	1.05340476	0
39.38000000	-12.71030343	367.08957518	3.60162038	0.85918155	0	-0.59371174	66.69878534	538.20262068	-19.82242817	0.54451063	0	-0.43579995	0	7.48305392	0	0	1.34154542	0
39.39000000	-18.61675228	400.07878668	7.91385070	0.85842485	0	-0.59379970	66.06381065	498.24650652	-15.60240292	0.54000169	0	-0.43601544	0	7.21393823	0	0	1.67825563	-0.00000000
39.40000000	-23.89885642	418.79667935	11.83766997	0.85707366	0	-0.59495709	63.99056961	454.52274333	-10.99483186	0.53583490	0	-0.43611315	0	6.62043844	0	0	2.02878573	0
39.41000000	-29.54763052	431.76022511	17.00678653	0.85534549	0	-0.59657091	60.69212566	407.70885592	-6.55422065	0.53168941	0	-0.43595799	0	5.53569924	0	0	2.31346157	0
39.42000000	-34.90700891	447.37912319	23.52683800	0.85349895	0	-0.59813134	56.48326333	358.70777358	-3.06453622	0.52757973	0	-0.43559816	0	4.12085549	0	0	2.43979653	0
39.43000000	-39.39565890	470.01560918	30.22443684	0.85137119	0	-0.59926361	51.52449088	308.67467827	-0.74115612	0.52389917	0	-0.43528286	0	2.81650775	0	0	2.38946595	0
39.44000000	-42.77635785	499.51867489	35.72293063	0.84865047	0	-0.59982902	45.15606998	259.04594279	0.54605876	0.52128456	0	-0.43564597	0	2.04107652	0	0	2.17434669	0.00000000
39.45000000	-44.60854639	533.43836038	39.42855997	0.84537983	0	-0.59996850	37.09261063	211.55513147	0.60900475	0.52087199	0	-0.43777674	0	1.95033746	0	0	1.86625262	0
39.46000000	-45.04004023	569.08075703	41.70524451	0.84167723	0	-0.59988398	28.30124434	167.96346901	-0.54331920	0.52323889	0	-0.44219744	0	2.36848377	0	0	1.49456766	0.00000000
39.47000000	-44.62328146	603.79971507	43.15534536	0.83737672	0	-0.59973098	20.37556449	129.57954506	-2.55643936	0.52583379	0	-0.44644046	0	3.02045534	0	0	1.18300748	0.00000000
39.48000000	-43.80580701	635.60822609	44.30718174	0.83263301	0	-0.59962954	13.72006099	97.50391184	-4.59991864	0.51947974	0	-0.44082540	0	3.68768081	0	0	0.88362055	0
39.49000000	-42.95515980	663.50508747	45.35421062	0.82762071	0	-0.59957615	8.33949238	71.98721253	-5.98419230	0.48728389	0	-0.40551645	0	4.30481018	0	0	0.50086774	0
39.50000000	-42.20413994	687.35194900	46.36408734	0.82248371	0	-0.59957104	4.60489626	51.66411666	-6.42020735	0.40851313	0	-0.31803347	0	4.85742066	0	0	-0.04187439	0
39.51000000	-41.67228627	707.76992437	47.48671845	0.81755357	0	-0.59968135	2.22314440	35.21346736	-6.01614132	0.27693351	0	-0.18627329	0	5.32739012	0	0	-0.45821376	0
39.52000000	-41.50621816	725.46487380	48.82778622	0.81304692	0	-0.59995344	0.58945047	22.09238619	-5.12817733	0.13107369	0	-0.07139813	0	5.67446383	0	0	-0.46058242	-0.00000000
